HIERARCHY
ROOT CG
{
	OFFSET -0.000000 -0.000000 27.772259
	CHANNELS 6 Xposition Yposition Zposition Xrotation Yrotation Zrotation
	JOINT Pelvis
	{
		OFFSET 0.000000 0.000000 0.000000
		CHANNELS 3 Xrotation Yrotation Zrotation
		JOINT Spine
		{
			OFFSET 0.000021 -10.490843 -0.495483
			CHANNELS 3 Xrotation Yrotation Zrotation
			JOINT Spine1
			{
				OFFSET 0.000071 -22.678980 0.018061
				CHANNELS 3 Xrotation Yrotation Zrotation
				JOINT Spine2
				{
					OFFSET 0.000071 -22.678967 0.018061
					CHANNELS 3 Xrotation Yrotation Zrotation
					JOINT Spine3
					{
						OFFSET 0.000071 -22.678982 0.018059
						CHANNELS 3 Xrotation Yrotation Zrotation
						JOINT Neck
						{
							OFFSET 0.000069 -22.678986 -1.289251
							CHANNELS 3 Xrotation Yrotation Zrotation
							JOINT Neck1
							{
								OFFSET 0.000051 -16.255905 0.012947
								CHANNELS 3 Xrotation Yrotation Zrotation
								JOINT Head
								{
									OFFSET 0.000033 -10.784607 -0.287502
									CHANNELS 3 Xrotation Yrotation Zrotation
									JOINT Jaw01
									{
										OFFSET 0.000003 7.782959 5.073944
										CHANNELS 3 Xrotation Yrotation Zrotation
										JOINT Jaw02
										{
											OFFSET 0.000129 -34.927139 -18.883980
											CHANNELS 3 Xrotation Yrotation Zrotation
											End Site
											{
												OFFSET -0.000200 8.372803 -38.812450
											}
										}
									}
									JOINT Nose
									{
										OFFSET 0.000090 -25.700912 7.222265
										CHANNELS 3 Xrotation Yrotation Zrotation
										End Site
										{
											OFFSET -0.000092 0.641281 -21.715439
										}
									}
									JOINT L_EyeSocket
									{
										OFFSET 7.352397 -19.832687 14.164183
										CHANNELS 3 Xrotation Yrotation Zrotation
										JOINT L_Eye
										{
											OFFSET -0.000868 -0.001053 0.016003
											CHANNELS 3 Xrotation Yrotation Zrotation
											End Site
											{
												OFFSET -0.001505 -0.001846 0.027969
											}
										}
										JOINT L_Eyelid_Top
										{
											OFFSET -0.001004 -0.002625 0.032516
											CHANNELS 3 Xrotation Yrotation Zrotation
											End Site
											{
												OFFSET -0.013218 0.005753 0.024086
											}
										}
										JOINT L_Eyelid_Bottom
										{
											OFFSET -0.001194 -0.002777 0.035381
											CHANNELS 3 Xrotation Yrotation Zrotation
											End Site
											{
												OFFSET -0.010032 0.008636 -0.024754
											}
										}
									}
									JOINT R_EyeSocket
									{
										OFFSET -7.352180 -19.832779 14.164206
										CHANNELS 3 Xrotation Yrotation Zrotation
										JOINT R_Eye
										{
											OFFSET 0.000875 -0.001068 0.015991
											CHANNELS 3 Xrotation Yrotation Zrotation
											End Site
											{
												OFFSET 0.001505 -0.001846 0.027962
											}
										}
										JOINT R_Eyelid_Top
										{
											OFFSET 0.001021 -0.002625 0.032516
											CHANNELS 3 Xrotation Yrotation Zrotation
											End Site
											{
												OFFSET 0.013214 0.005753 0.024078
											}
										}
										JOINT R_Eyelid_Bottom
										{
											OFFSET 0.001170 -0.002762 0.035366
											CHANNELS 3 Xrotation Yrotation Zrotation
											End Site
											{
												OFFSET 0.010029 0.008636 -0.024746
											}
										}
									}
								}
								JOINT Neck_Fat
								{
									OFFSET 0.000078 -9.595100 -17.491512
									CHANNELS 3 Xrotation Yrotation Zrotation
									End Site
									{
										OFFSET -0.000091 15.369423 -0.000007
									}
								}
							}
						}
						JOINT L_Clavicle
						{
							OFFSET 4.567149 -11.666077 -3.750029
							CHANNELS 3 Xrotation Yrotation Zrotation
							JOINT L_UpperArm
							{
								OFFSET 20.725664 0.000023 -0.000032
								CHANNELS 3 Xrotation Yrotation Zrotation
								JOINT L_Forearm
								{
									OFFSET 5.265114 -0.585732 -20.155697
									CHANNELS 3 Xrotation Yrotation Zrotation
									JOINT L_Hand
									{
										OFFSET 2.653055 -10.877701 -16.383667
										CHANNELS 3 Xrotation Yrotation Zrotation
										JOINT L_Finger0
										{
											OFFSET -4.206129 -4.328926 -5.034346
											CHANNELS 3 Xrotation Yrotation Zrotation
											JOINT L_Finger01
											{
												OFFSET 0.084278 -1.788536 -4.181065
												CHANNELS 3 Xrotation Yrotation Zrotation
												End Site
												{
													OFFSET 3.261873 3.094681 -0.685818
												}
											}
										}
										JOINT L_Finger1
										{
											OFFSET -1.039085 -6.775749 -3.499998
											CHANNELS 3 Xrotation Yrotation Zrotation
											JOINT L_Finger11
											{
												OFFSET 1.320347 -3.040665 -6.425793
												CHANNELS 3 Xrotation Yrotation Zrotation
												End Site
												{
													OFFSET -1.244606 6.832069 -2.013330
												}
											}
										}
										JOINT L_Finger2
										{
											OFFSET 2.531319 -5.656479 -3.286415
											CHANNELS 3 Xrotation Yrotation Zrotation
											JOINT L_Finger21
											{
												OFFSET 1.991673 -2.402008 -5.957748
												CHANNELS 3 Xrotation Yrotation Zrotation
												End Site
												{
													OFFSET -2.793091 5.800865 -1.944178
												}
											}
										}
										JOINT L_Finger3
										{
											OFFSET 5.474087 -3.302322 -2.655975
											CHANNELS 3 Xrotation Yrotation Zrotation
											JOINT L_Finger31
											{
												OFFSET 2.026951 -1.267525 -5.961166
												CHANNELS 3 Xrotation Yrotation Zrotation
												End Site
												{
													OFFSET -4.375191 4.343643 -1.800320
												}
											}
										}
										JOINT L_Finger4
										{
											OFFSET 4.825741 1.085915 -2.321970
											CHANNELS 3 Xrotation Yrotation Zrotation
											JOINT L_Finger41
											{
												OFFSET 3.358269 -1.829636 -3.744434
												CHANNELS 3 Xrotation Yrotation Zrotation
												End Site
												{
													OFFSET -3.843307 2.955185 -2.267633
												}
											}
										}
									}
								}
							}
						}
						JOINT R_Clavicle
						{
							OFFSET -4.567070 -11.666107 -3.750036
							CHANNELS 3 Xrotation Yrotation Zrotation
							JOINT R_UpperArm
							{
								OFFSET -20.725672 -0.000107 0.000038
								CHANNELS 3 Xrotation Yrotation Zrotation
								JOINT R_Forearm
								{
									OFFSET -5.265284 -0.585785 -20.155655
									CHANNELS 3 Xrotation Yrotation Zrotation
									JOINT R_Hand
									{
										OFFSET -2.653109 -10.877747 -16.383663
										CHANNELS 3 Xrotation Yrotation Zrotation
										JOINT R_Finger0
										{
											OFFSET 4.206133 -4.328873 -5.034388
											CHANNELS 3 Xrotation Yrotation Zrotation
											JOINT R_Finger01
											{
												OFFSET -0.084318 -1.788544 -4.181051
												CHANNELS 3 Xrotation Yrotation Zrotation
												End Site
												{
													OFFSET -3.261902 3.094658 -0.685791
												}
											}
										}
										JOINT R_Finger1
										{
											OFFSET 1.039127 -6.775703 -3.499994
											CHANNELS 3 Xrotation Yrotation Zrotation
											JOINT R_Finger11
											{
												OFFSET -1.320362 -3.040680 -6.425779
												CHANNELS 3 Xrotation Yrotation Zrotation
												End Site
												{
													OFFSET 1.244530 6.832085 -2.013342
												}
											}
										}
										JOINT R_Finger2
										{
											OFFSET -2.531284 -5.656471 -3.286409
											CHANNELS 3 Xrotation Yrotation Zrotation
											JOINT R_Finger21
											{
												OFFSET -1.991699 -2.402023 -5.957708
												CHANNELS 3 Xrotation Yrotation Zrotation
												End Site
												{
													OFFSET 2.793015 5.800865 -1.944197
												}
											}
										}
										JOINT R_Finger3
										{
											OFFSET -5.474079 -3.302345 -2.655947
											CHANNELS 3 Xrotation Yrotation Zrotation
											JOINT R_Finger31
											{
												OFFSET -2.026985 -1.267540 -5.961157
												CHANNELS 3 Xrotation Yrotation Zrotation
												End Site
												{
													OFFSET 4.375137 4.343689 -1.800358
												}
											}
										}
										JOINT R_Finger4
										{
											OFFSET -4.825760 1.085907 -2.321926
											CHANNELS 3 Xrotation Yrotation Zrotation
											JOINT R_Finger41
											{
												OFFSET -3.358299 -1.829666 -3.744390
												CHANNELS 3 Xrotation Yrotation Zrotation
												End Site
												{
													OFFSET 3.843262 2.955223 -2.267666
												}
											}
										}
									}
								}
							}
						}
					}
				}
			}
		}
		JOINT Tail01
		{
			OFFSET -0.000049 10.922326 -0.017508
			CHANNELS 3 Xrotation Yrotation Zrotation
			JOINT Tail02
			{
				OFFSET -0.000100 21.986111 0.000013
				CHANNELS 3 Xrotation Yrotation Zrotation
				JOINT Tail03
				{
					OFFSET -0.000100 21.986118 0.000002
					CHANNELS 3 Xrotation Yrotation Zrotation
					JOINT Tail04
					{
						OFFSET -0.000100 21.986122 0.000004
						CHANNELS 3 Xrotation Yrotation Zrotation
						JOINT Tail05
						{
							OFFSET -0.000100 21.986099 0.000010
							CHANNELS 3 Xrotation Yrotation Zrotation
							JOINT Tail06
							{
								OFFSET -0.000100 21.986099 0.000006
								CHANNELS 3 Xrotation Yrotation Zrotation
								JOINT Tail07
								{
									OFFSET -0.000100 21.986099 0.000000
									CHANNELS 3 Xrotation Yrotation Zrotation
									JOINT Tail08
									{
										OFFSET -0.000100 21.984848 0.000050
										CHANNELS 3 Xrotation Yrotation Zrotation
										JOINT Tail09
										{
											OFFSET -0.000103 21.926025 -1.606211
											CHANNELS 3 Xrotation Yrotation Zrotation
											JOINT Tail10
											{
												OFFSET -0.000105 21.750092 -3.203882
												CHANNELS 3 Xrotation Yrotation Zrotation
												End Site
												{
													OFFSET -0.000053 4.767395 21.461668
												}
											}
										}
									}
								}
							}
						}
					}
				}
			}
		}
		JOINT L_Thigh
		{
			OFFSET 24.788780 0.000110 -0.000034
			CHANNELS 3 Xrotation Yrotation Zrotation
			JOINT L_Calf
			{
				OFFSET 4.720823 4.161343 -21.049969
				CHANNELS 3 Xrotation Yrotation Zrotation
				JOINT L_Foot
				{
					OFFSET 2.154083 21.114443 -11.949743
					CHANNELS 3 Xrotation Yrotation Zrotation
					JOINT L_Toe0
					{
						OFFSET 4.557531 9.251856 -8.735286
						CHANNELS 3 Xrotation Yrotation Zrotation
						End Site
						{
							OFFSET 4.555584 -12.646029 1.018752
						}
					}
					JOINT L_Toe1
					{
						OFFSET 2.346270 5.845610 -11.687160
						CHANNELS 3 Xrotation Yrotation Zrotation
						End Site
						{
							OFFSET 5.347996 -12.298262 1.365644
						}
					}
					JOINT L_Toe2
					{
						OFFSET -0.356033 3.902456 -12.541145
						CHANNELS 3 Xrotation Yrotation Zrotation
						End Site
						{
							OFFSET 3.916277 -12.806116 1.542549
						}
					}
					JOINT L_Toe3
					{
						OFFSET -4.603458 3.183916 -12.435249
						CHANNELS 3 Xrotation Yrotation Zrotation
						End Site
						{
							OFFSET 3.810904 -12.587413 2.957583
						}
					}
					JOINT L_Toe4
					{
						OFFSET -7.144381 6.231468 -10.072764
						CHANNELS 3 Xrotation Yrotation Zrotation
						End Site
						{
							OFFSET 3.810902 -12.587412 2.957585
						}
					}
				}
			}
		}
		JOINT R_Thigh
		{
			OFFSET -24.788780 -0.000112 0.000034
			CHANNELS 3 Xrotation Yrotation Zrotation
			JOINT R_Calf
			{
				OFFSET -4.720936 4.161307 -21.049952
				CHANNELS 3 Xrotation Yrotation Zrotation
				JOINT R_Foot
				{
					OFFSET -2.154314 21.114407 -11.949730
					CHANNELS 3 Xrotation Yrotation Zrotation
					JOINT R_Toe0
					{
						OFFSET -4.557631 9.251808 -8.735270
						CHANNELS 3 Xrotation Yrotation Zrotation
						End Site
						{
							OFFSET -4.555466 -12.646067 1.018756
						}
					}
					JOINT R_Toe1
					{
						OFFSET -2.346346 5.845581 -11.687157
						CHANNELS 3 Xrotation Yrotation Zrotation
						End Site
						{
							OFFSET -5.347878 -12.298304 1.365654
						}
					}
					JOINT R_Toe2
					{
						OFFSET 0.355967 3.902464 -12.541145
						CHANNELS 3 Xrotation Yrotation Zrotation
						End Site
						{
							OFFSET -3.916157 -12.806145 1.542559
						}
					}
					JOINT R_Toe3
					{
						OFFSET 4.603399 3.183960 -12.435266
						CHANNELS 3 Xrotation Yrotation Zrotation
						End Site
						{
							OFFSET -3.810780 -12.587443 2.957591
						}
					}
					JOINT R_Toe4
					{
						OFFSET 7.144300 6.231529 -10.072779
						CHANNELS 3 Xrotation Yrotation Zrotation
						End Site
						{
							OFFSET -3.810781 -12.587446 2.957584
						}
					}
				}
			}
		}
	}
}
MOTION
Frames: 4
Frame Time: 0.033333
-0.000000 -0.000000 47.993870 0.000000 -0.000000 -0.000082 -13.074612 3.624976 -0.216250 14.110314 -2.431990 4.987417 0.817449 0.058546 -2.334296 -0.328423 0.058496 -2.315469 -5.717850 0.050906 -2.491076 4.027309 -0.069401 0.249888 -7.284945 -0.005045 0.241474 3.472857 -1.220690 2.658150 -3.268561 0.304097 -0.440149 0.000006 -0.000000 0.000000 -0.000001 0.000000 -0.000000 -0.000000 0.000000 0.000000 0.000112 -0.000069 0.000003 -0.000002 -0.000001 -0.000001 0.000004 0.000003 0.000005 -0.000001 0.000000 -0.000001 0.000110 0.000069 -0.000010 -0.000001 -0.000003 -0.000000 0.000001 -0.000002 -0.000002 -0.115289 -0.000000 -0.000000 0.001234 -13.367494 3.804350 36.503294 -24.785512 -17.760577 -47.358134 11.660696 -8.438165 -8.274267 23.428770 14.783876 23.969574 28.202980 21.009892 50.816181 -27.848541 32.459320 46.268630 13.280248 -7.053651 38.067424 8.802790 1.104105 42.415762 17.986989 -10.448754 20.691681 11.036851 0.569000 24.428419 13.040349 -13.322444 22.095906 22.537445 -1.914280 16.454503 10.487756 -6.154342 40.574469 45.309897 -11.883407 -0.000640 -5.460675 -11.081383 38.333720 16.999776 29.089823 -27.725783 -5.978931 6.118408 -39.700020 13.103035 6.206672 -12.580475 -36.690871 -29.454095 -0.270920 -0.198216 0.273161 11.170412 -5.128941 9.815156 -20.751127 3.845805 3.042953 10.719835 1.794906 6.937971 -32.615417 14.463884 8.240539 1.146573 17.698425 11.544235 -18.792678 18.144102 5.123133 12.740627 29.126181 3.859694 0.253857 0.433926 0.614126 -4.637812 -1.537952 3.799313 -10.535719 2.369039 -7.085559 9.059198 -2.176886 -12.250656 6.833219 -1.710313 -1.769188 7.015052 -0.990855 1.938819 6.002236 0.188294 6.436241 1.315222 0.782565 10.134376 3.035706 1.643960 11.565560 1.580564 2.058691 10.104867 1.843220 1.710828 6.243686 -17.002562 -4.818955 9.346182 18.492578 1.192184 4.101052 -65.918484 3.341641 -23.706887 6.063653 -26.117202 5.603988 10.996565 -7.513679 3.931371 16.300668 9.964768 1.754258 18.235219 15.311018 -15.214561 -5.999885 24.357361 -11.012344 -44.547563 11.881502 19.751519 42.763845 -4.623919 -8.563130 -46.932614 -31.641418 6.199516 45.858225 -26.415103 -5.833018 56.430640 -32.128622 -2.702093 67.673699 -38.171069 -1.613189 74.130898 -37.984567 15.473935 46.840799 -38.432477 2.984159 
-0.000000 -0.000000 49.015625 0.000000 -0.000000 -0.000082 -13.172018 2.880595 2.572627 14.490842 -1.031376 3.682441 0.746753 -0.082343 -3.316110 0.264164 -0.073910 -3.273118 -5.387131 -0.091179 -3.525821 3.471565 -0.043291 1.046726 -8.087484 -0.076509 1.037343 3.255885 -2.327244 2.325236 -3.693009 0.293457 -0.404502 0.000001 -0.000000 0.000000 -0.000000 -0.000000 -0.000000 -0.000000 0.000001 -0.000007 0.000112 -0.000069 0.000000 -0.000003 0.000001 0.000003 0.000003 0.000000 0.000006 -0.000000 0.000000 -0.000003 0.000110 0.000069 -0.000016 -0.000000 -0.000002 -0.000002 0.000003 0.000000 -0.000005 -0.089422 -0.000001 -0.000000 0.000835 -11.049631 -4.029576 30.457661 -22.923380 -10.489185 -42.014580 10.044115 -8.002088 -20.484219 23.909101 21.676956 29.643567 27.492222 18.097937 51.293573 -27.931724 32.816197 49.756767 15.593079 -5.071538 37.485902 8.668573 1.132002 45.441843 18.542166 -10.503757 21.093955 11.248119 0.540248 27.143471 13.977528 -14.464447 21.211653 21.725578 -1.672892 16.074768 9.981224 -7.417344 41.785765 46.797492 -12.397601 -0.001181 -4.010994 -13.553016 44.188257 18.479388 31.744786 -25.790031 -5.468454 5.788205 -36.677016 12.252253 4.997867 -14.546951 -32.320704 -23.679245 -0.757654 -0.701942 0.401289 -0.413337 -1.437760 12.039827 -21.172313 3.951788 3.036282 -0.693131 6.267012 8.476150 -33.435613 14.750386 8.548943 -7.176028 20.483094 11.605953 -18.864445 18.204216 5.152756 14.308891 26.799478 0.788050 0.140069 1.070706 1.015616 -4.540982 -1.502436 3.492668 -10.882260 2.680254 -7.373726 8.400052 -1.830579 -12.816380 6.219306 -1.574847 -3.120089 6.817859 -1.086778 -0.162496 6.581106 0.040443 4.067933 2.573152 0.834872 8.455445 4.366192 1.779794 11.446336 2.194791 2.436490 11.717562 1.320003 2.442104 8.993378 -7.515333 -3.527155 8.248730 13.030369 0.702257 2.930787 -63.435266 3.303620 -22.394869 3.802970 -24.324127 4.138828 7.836956 -7.757190 2.477168 12.634247 8.839318 1.956159 14.447505 14.086843 -13.534267 -9.586171 23.458240 -11.035717 -53.496955 15.989384 13.124348 40.408396 -4.210365 -8.196692 -40.230077 -30.079064 11.340677 38.867540 -17.141316 -3.789219 49.651934 -22.571106 -0.828439 59.841350 -28.052912 -0.504946 63.537056 -27.734642 14.063996 38.738886 -28.930342 3.876889 
-0.000000 -0.000000 50.012878 0.000000 -0.000000 -0.000082 -13.235970 1.864648 5.788087 15.002210 0.411903 1.570235 0.607288 -0.230174 -4.092131 1.351343 -0.222825 -4.015801 -4.857410 -0.243939 -4.329244 2.435561 -0.021995 1.846188 -9.582374 -0.162485 1.834510 3.228396 -3.365038 1.673367 -4.274958 0.287457 -0.391353 0.000005 -0.000000 0.000000 -0.000000 -0.000000 -0.000000 0.000001 0.000001 -0.000003 0.000112 -0.000069 0.000007 -0.000002 -0.000002 0.000002 -0.000000 -0.000001 0.000011 -0.000001 0.000000 -0.000001 0.000109 0.000069 -0.000009 -0.000001 -0.000001 0.000002 -0.000000 -0.000000 0.000001 -0.063023 -0.000000 0.000000 -0.000830 -6.891139 -13.029509 26.070086 -23.791572 -0.981107 -35.946124 8.261747 -7.325513 -34.485516 21.440797 28.338825 32.685604 27.347386 16.036019 48.733881 -27.452791 30.906920 50.749419 17.560961 -2.688815 34.134605 7.889023 1.265822 46.190759 18.230313 -10.037178 18.932642 10.106190 0.677504 28.094810 13.523049 -15.475697 18.310730 18.984301 -0.970677 14.506810 7.772301 -8.884468 40.012280 46.270553 -11.084916 -0.001752 -2.647545 -15.964836 47.891019 19.456656 34.843752 -21.240381 -4.315991 4.947576 -34.071774 10.852822 3.560784 -15.371513 -27.087707 -17.564562 -1.258679 -1.217945 0.530626 -12.643814 1.916279 15.029760 -21.594251 4.048911 3.048198 -12.863230 10.506727 11.026290 -34.278985 15.031802 8.867877 -15.278382 22.756162 11.845862 -18.937038 18.264933 5.182782 16.377322 23.176763 -2.543418 0.008955 1.731790 1.438020 -4.366688 -1.365448 2.912296 -10.945754 2.914018 -7.332095 8.035754 -1.418596 -12.695028 5.500466 -1.369863 -4.158600 6.186319 -1.116625 -1.972856 6.623638 -0.135204 1.637303 3.512939 0.792520 6.155233 5.832319 1.761595 10.270026 3.350109 2.640709 12.226775 1.455590 3.010022 11.001355 -3.009526 -3.660068 5.630034 13.572400 0.745826 3.048843 -54.298460 3.408102 -21.997872 -1.976420 -19.183285 0.620970 -0.821940 -8.013413 -1.543226 2.684552 5.722913 2.124911 4.395137 10.233858 -9.441717 -19.270354 21.028126 -11.401199 -58.692908 20.250966 3.517137 33.599053 -3.104997 -7.048095 -32.258785 -25.100117 18.455969 31.795890 -8.168726 -0.696400 42.910530 -13.275031 2.089614 52.371292 -18.147362 1.958014 53.972428 -17.435861 14.741189 31.062768 -19.619218 6.113245 
-0.000000 -0.000000 50.462830 0.000000 -0.000000 -0.000082 -13.234323 0.710075 9.024986 15.399539 1.777772 -0.880713 0.469921 -0.340046 -4.716985 2.322310 -0.339300 -4.605326 -4.325534 -0.361982 -4.971418 1.511150 -0.012018 2.538594 -10.914841 -0.256325 2.522636 3.363158 -4.317514 1.014676 -4.692158 0.282078 -0.339966 0.000002 -0.000000 0.000000 0.000000 -0.000000 -0.000000 -0.000000 0.000000 0.000000 0.000112 -0.000069 0.000005 -0.000002 0.000000 0.000001 0.000005 -0.000001 0.000011 0.000000 0.000000 0.000000 0.000111 0.000069 -0.000009 0.000002 -0.000003 0.000002 0.000002 0.000001 0.000002 -0.037977 -0.000001 -0.000000 -0.002452 -0.857298 -18.768525 21.809757 -28.283808 5.447874 -29.918168 6.570106 -6.471568 -44.595606 16.977784 32.022618 29.238879 27.998863 18.139608 41.550312 -25.664904 25.617750 47.507176 17.448229 0.155597 26.760900 6.148888 1.396992 43.314136 16.328665 -8.994604 12.759529 6.802474 0.827508 26.330861 11.323300 -16.904032 12.963669 13.659811 -0.054321 12.016092 4.259393 -11.296471 33.598708 41.908268 -7.185557 -0.001846 -2.015814 -16.360965 60.351490 19.225188 28.052519 -32.541166 -7.295491 6.864973 -26.343343 12.821762 7.730534 -25.469004 -34.349834 -25.405611 -3.577024 -3.521305 1.439060 -10.648700 -0.796867 12.899777 -5.124953 1.065076 0.583947 -8.405022 9.574638 9.731783 -20.619996 9.884310 4.331305 -11.891558 24.715734 12.376220 -6.218798 6.440718 1.063299 12.298571 28.743854 -0.029622 -1.442984 6.134100 3.890061 -4.153581 -1.231118 2.371630 -10.515070 3.176657 -7.327149 8.143672 -0.971254 -12.579444 4.750309 -1.189841 -5.188607 5.182959 -1.090358 -3.199543 6.004837 -0.258599 -0.144058 3.730384 0.695135 3.881533 6.926330 1.573225 8.181809 4.824742 2.585898 11.262155 2.462289 3.298982 11.741622 3.393335 -4.336691 3.610889 9.191678 0.426078 2.084192 -43.303850 4.406014 -21.345443 -9.102189 -11.704715 -3.159647 -12.632774 -7.391095 -7.004199 -10.840637 1.513669 1.485262 -8.702929 3.985914 -5.115317 -32.302413 17.868162 -12.568411 -54.787662 16.213045 -7.595232 9.627122 -0.454449 -2.181125 -23.444344 -9.838449 20.293363 9.980038 -6.389080 0.608719 20.662272 -11.366885 1.469472 29.527085 -17.537376 -1.271098 31.570733 -19.327183 10.631335 8.678461 -20.416636 0.440722 
